<svg xmlns="http://www.w3.org/2000/svg" width="162.016" height="123.013"><path fill="#202020" d="M30.939 36.29c-.02-.155-.028-.211.092-.434.666-1.559 2.641-3.671 5.756-.848.057.051.272.299.317.432.247 1.64.425 3.296.813 4.903.366 1.61.613 3.256 1.117 4.824l.873 3.088c.32 1.018.717 2.006 1.07 3.011.653 2.037 1.651 3.91 2.488 5.859 1.962 3.741 4.209 7.322 6.956 10.477 2.783 3.111 5.947 5.842 9.449 8.066 3.554 2.141 7.42 3.717 11.447 4.77 1.755.349 3.483.83 5.284.96l1.463.286.756.152c.14.057.305.043.627.053.59-.002 1.186.071 1.98.006 3.037-.089 7.066-.496 10.387-.699 2.811-.247 4.677-.312 5.778-.206.577.052.953.164 1.106.292.081.075.121.156.122.232l-.027.115-.035.057-.022.028-.013.014-.006.007-.003.003-.002.002-.001.001v-.225l-.003.216-.003.018-.006.008-.013.017-.028.034-.063.068-.153.141c-.113.095-.245.193-.392.289-.36.217-.848.458-1.416.707-1.145.499-2.652 1.06-4.334 1.592.363-.021-3.645 1.171-7.916 2.147-1.095.221-2.168.458-3.248.64l-1.652.202c-.238.013-.586.1-.907.062l-.724-.043-2.875-.168c-.433-.058-.87-.088-1.3-.168l-1.288-.271-2.575-.549c-4.615-1.204-9.088-3.026-13.195-5.507-4.055-2.562-7.701-5.711-10.871-9.263-3.132-3.594-5.662-7.618-7.84-11.787-.938-2.147-2.031-4.242-2.753-6.464-.389-1.101-.821-2.19-1.171-3.301l-.953-3.358c-.542-1.714-.817-3.478-1.21-5.22-.422-1.741-.618-3.508-.883-5.268z" opacity=".9"/><path fill="#202020" d="M53.147 43.002c.123.064.167.085.262.301.361.677.747 1.704.585 2.734-.167 1.014-.909 2.086-3.09 2.518-.079.015-.435.038-.586-.011-3.326-1.708-6.263-3.778-9.081-5.792-1.664-1.2-3.286-2.389-4.916-3.5l-.904-.61-.007-.008-.016-.011h-.003l-.093-.085c-.027-.036-.105.054-.195.151l-.162.356-.212.5-.453 1.063c-1.255 2.938-2.857 6.646-4.319 9.662-4.698 10.321-4.629 5.611-3.208-1.256-.174.327.811-3.738 1.865-7.891l.79-3.063.189-.724.092-.351.167-.571.697-2.334 1.155-3.772.191-.623c.059-.172.078-.406.217-.256l.326.176c1.403.825 2.769 1.592 4.161 2.438.693.413 1.387.872 2.071 1.312l1.146.769c1.734 1.183 3.4 2.396 5.042 3.571 2.772 1.986 5.488 3.875 8.289 5.307z" opacity=".9"/></svg>