<svg xmlns="http://www.w3.org/2000/svg" height="180" width="993"><g opacity=".25" fill="#1C75BC"><rect y="17.217" x="191.38" height="162.74" width="82.209"/><rect y="135.71" x="-18.615" height="44.244" width="82.209"/><rect y="135.71" x="951.96" height="44.244" width="82.209"/><rect y="142.69" x="57.953" height="37.265" width="82.209"/><rect y="107.46" x="257.95" height="72.494" width="59.047"/><rect y="135.71" x="350.24" height="44.244" width="59.047"/><rect y="151.96" x="467.01" height="28" width="59.047"/><rect y="122.57" x="575.5" height="57.384" width="59.047"/><rect y="151.26" x="672.5" height="28.692" width="59.047"/><rect y="135.71" x="705.03" height="44.244" width="59.047"/><rect y="143.71" x="771.18" height="36.247" width="59.047"/><rect y="142.69" x="877.33" height="37.265" width="59.047"/><rect y="151.96" x="150.28" height="28" width="82.209"/><rect y="44.363" x="18.021" height="135.59" width="68.496"/><rect x="288.85" height="179.96" width="90.907"/><rect y="16.319" x="612.03" height="163.64" width="82.663"/><polygon points="597.26 47.253 531.97 47.253 531.97 34.966 515.78 34.966 515.78 47.253 503.25 47.253 503.25 59.261 504.95 59.261 504.95 179.96 595.86 179.96 595.86 59.261 597.26 59.261"/><polygon points="489.59 39.585 479.22 39.585 479.22 31.072 451.56 31.072 451.56 39.585 427.71 39.585 427.71 22.903 411.52 22.903 411.52 39.585 395.58 39.585 395.58 51.594 397.29 51.594 397.29 179.96 488.19 179.96 488.19 51.594 489.59 51.594"/><polygon points="802.7 47.733 812.47 47.733 812.47 39.714 838.52 39.714 838.52 47.733 860.99 47.733 860.99 32.019 876.24 32.019 876.24 47.733 891.26 47.733 891.26 59.044 889.65 59.044 889.65 179.96 804.02 179.96 804.02 59.044 802.7 59.044"/><path d="m901.06 122.55l-.021.006.02-.01zm983.69 122.57l-41.222-31.107s-40.304 30.361-41.405 31.089c.298-.166 4.764-.254 11.483-.293v57.692h60.347v-57.472c6.56.06 10.8.09 10.8.09zm706.84 108.65l-.02.011.02-.01zm790.51 108.68l-41.74-47.399s-40.811 46.257-41.931 47.364c.303-.25 4.824-.386 11.631-.444v71.754h61.108v-71.417c6.63.09 10.93.15 10.93.15z"/><polygon points="180.67 120.46 102.24 105.43 99.057 122.03 108.28 123.8 108.28 179.96 171.44 179.96 171.44 135.9 177.48 137.06"/></g></svg>