<svg xmlns="http://www.w3.org/2000/svg" width="780" height="108"><rect x="-2.333" y="102.188" fill="#14304A" width="850.833" height="13.812"/><g fill="#14304A"><rect x="36.557" y="15.519" width="63.958" height="19.214"/><rect x="34.751" y="93.282" width="19.306" height="11.963"/><rect x="84.731" y="93.98" width="19.307" height="11.963"/><path d="M113.259 29.074v-.113h-.089l-7.761-10.077h-2.796v17.948h-68.155v-17.948h-3.136l-17.065 24.56h11.067v62.303h8.029v-13.865h22.105v13.864h27.875v-13.164h22.104v13.165h7.821v-62.304h11.067l-11.066-14.369zm-9.641 54.738h-2.018v-5.746h-7.216v5.746h-.833v-8.652h-7.376v8.652h-.588v-7.274h-7.215v7.274h-24.882v-5.746h-7.216v5.746h-.832v-8.652h-7.376v8.652h-2.684v-39.046h5.888v2.947h-2.199v10.098h5.365v-10.098h-2.326v-2.947h7.852v1.698h-2.703v5.583h2.703v.641h-2.843v7.109h6.371v-7.109h-2.69v-.641h2.831v-5.583h-2.831v-1.698h6.233v2.077h-1.869v8.571h4.557v-8.571h-1.976v-2.077h6.668v1.015h-2.294v4.741h2.294v.046h.711v-.046h2.404v-4.741h-2.404v-1.015h6.883v1.555h-2.832v5.583h2.832v.641h-2.688v7.11h6.371v-7.11h-2.844v-.641h2.702v-5.583h-2.702v-1.555h7.852v2.804h-2.326v10.097h5.364v-10.097h-2.2v-2.804h6.375v1.793h-2.348v5.095h2.348v.585h-2.218v6.487h5.813v-6.486h-2.757v-.585h2.629v-5.095h-2.629v-1.793h14.868v39.047h.001v-.002z"/></g><g fill="#14304A"><polygon points="686.96,49.099 684.976,49.099 684.976,46.519 684.217,46.519 684.217,49.099 682.113,49.099 682.113,57.939 686.96,57.939"/><rect x="652.945" y="51.953" width="4.887" height="5.287"/><path d="M703.058 57.096v2.229h3.356v44.382h1.862v-44.381h9.336v10.984c-.745.784-1.826 2.4-1.826 5.198 0 2.976 1.225 6.444 1.961 8.263l-1.609 3.565h4.518l-1.789-3.628c.741-1.838 1.934-5.261 1.934-8.198 0-4.251-2.506-5.792-2.506-5.792v-10.392h7.779v13.486c-.86.908-2.114 2.78-2.114 6.02 0 3.441 1.415 7.457 2.271 9.564l-1.866 4.127h5.229l-2.069-4.198c.854-2.128 2.24-6.091 2.24-9.491 0-4.921-2.898-6.706-2.898-6.706v-12.801h7.002v10.508c-.743.785-1.826 2.403-1.826 5.2 0 2.974 1.225 6.441 1.962 8.262l-1.609 3.564h4.514l-1.788-3.627c.74-1.838 1.936-5.26 1.936-8.197 0-4.252-2.505-5.793-2.505-5.793v-9.916h7.06v10.277c-.668.703-1.64 2.158-1.64 4.67 0 2.673 1.101 5.791 1.762 7.428l-1.447 3.205h4.061l-1.605-3.262c.666-1.651 1.738-4.729 1.738-7.369 0-3.821-2.253-5.205-2.253-5.205v-9.742h7.485v14.71c-.896.944-2.202 2.896-2.202 6.269 0 3.586 1.479 7.77 2.367 9.963l-1.945 4.302h5.448l-2.159-4.376c.895-2.215 2.336-6.344 2.336-9.889 0-5.127-3.022-6.986-3.022-6.986v-13.997h11.268v44.381h1.863v-44.381h3.622v-2.23h-64.232zm15.268 14.331c.435 0 .789.351.789.786 0 .434-.354.786-.789.786-.435 0-.784-.353-.784-.786.001-.434.351-.786.784-.786zm8.573 2.68c.503 0 .91.406.91.91s-.407.909-.91.909-.911-.405-.911-.909c.001-.501.408-.91.911-.91zm7.678-3.155c.433 0 .787.353.787.784 0 .436-.354.787-.787.787-.435 0-.786-.352-.786-.787.001-.431.353-.784.786-.784zm7.671-.348c.389 0 .706.316.706.709 0 .387-.315.707-.706.707-.389 0-.707-.316-.707-.707.001-.392.317-.709.707-.709zm8.317 4.778c.522 0 .949.425.949.948 0 .521-.425.947-.949.947-.525 0-.948-.426-.948-.947.002-.525.424-.948.948-.948zm-45.001-35.216l2.487 2.402 2.076-2.402h.87l3.217 2.741 1.967-2.741h.568l-.4-.235.141-.192h-.467l-52.513-30.781h6.071v-4.175h-22.174v4.175h5.553l-51.344 31.208h1.142l2.734 2.642 2.284-2.642h.384l3.497 2.979 2.139-2.979h.123l3.143 3.035 2.62-3.035h.674l1.641 1.396 1.002-1.396h1.693l-2.448 3.414-2.438-2.077v62.205h79.463v-63.43l2.895 2.465 1.849-2.577h1.551zm-15.007 40.465h-1.824v-5.031h-6.521v5.031h-.749v-7.576h-6.667v7.576h-.53v-6.37h-6.521v6.37h-22.486v-5.031h-6.52v5.031h-.752v-7.576h-6.667v7.576h-2.424v-34.196h5.321v2.581h-1.986v8.841h4.849v-8.841h-2.104v-2.581h7.098v1.486h-2.442v4.891h2.442v.561h-2.57v6.225h5.758v-6.225h-2.43v-.561h2.557v-4.891h-2.557v-1.486h5.634v1.818h-1.688v7.507h4.115v-7.507h-1.786v-1.818h6.025v.889h-2.075v4.151h2.075v.041h.644v-.041h2.171v-4.151h-2.173v-.889h6.219v1.361h-2.56v4.889h2.56v.562h-2.428v6.228h5.757v-6.228h-2.57v-.562h2.443v-4.889h-2.443v-1.361h7.098v2.455h-2.103v8.84h4.849v-8.84h-1.991v-2.455h5.764v1.57h-2.122v4.461h2.122v.512h-2.003v5.683h5.254v-5.683h-2.491v-.512h2.373v-4.461h-2.373v-1.57h13.438l-.01 34.196zm5.786-37.396l-2.98-2.881-2.316 3.226-3.767-3.21-2.475 2.864-2.729-2.637-2.143 2.982-3.768-3.21-2.474 2.864-2.98-2.881-2.317 3.226-3.767-3.209-2.473 2.864-2.983-2.88-2.315 3.226-3.768-3.21-2.474 2.864-2.479-2.393-1.964 2.738-3.767-3.209-2.476 2.864-2.98-2.88-2.316 3.225-3.768-3.21-2.474 2.864-3.177-3.069h1.98l1.105 1.068.922-1.068h3.524l1.639 1.397 1-1.397h3.35l1.103 1.068.923-1.068h3.525l1.639 1.397 1.003-1.397h2.489l1.105 1.068.922-1.068h3.524l1.64 1.396 1.003-1.396h3.346l1.104 1.068.922-1.068h3.523l1.64 1.397 1.001-1.397h3.347l1.104 1.068.922-1.068h3.525l1.637 1.397 1.003-1.397h2.921l1.104 1.068.922-1.068h3.525l1.638 1.397 1.001-1.397h3.349l1.104 1.068.922-1.068h1.851l-2.677 3.072z"/></g><g fill="#14304A"><path d="M241.103 91.402c0 6.22 5.061 11.281 11.281 11.281 6.22 0 11.281-5.062 11.281-11.281 0-6.221-5.061-11.28-11.281-11.28-6.22 0-11.281 5.06-11.281 11.28zm-73.739 1.023c0 6.222 5.061 11.282 11.28 11.282 6.221 0 11.28-5.062 11.28-11.282s-5.06-11.28-11.28-11.28-11.28 5.06-11.28 11.28z"/><polygon points="208.62,47.631 275.312,47.631 263.952,35.622 197.257,35.622"/><path d="M150.022 66.139v25.578h15.435c.372-6.961 6.136-12.515 13.187-12.515 7.052 0 12.814 5.554 13.187 12.515h47.347l-.017-.312c0-7.291 5.932-13.224 13.223-13.224s13.224 5.933 13.224 13.224l-.017.312h1.236v-42.791h-6.634v19.988h-2.042v-8.448h-6.71v8.448h-2.051v-5.28h-6.564v5.28h-19.4v-6.947h-6.563v6.947h-1.829v-8.448h-6.712v8.448h-1.403v-5.28h-6.564v5.28h-3.181l9.03-21.954-1.797-1.898-8.76 21.293v-30.553l-1.395-1.474h70.257l2.318 2.45v-9.06h-77.964v22.07h-27.866v16.351h-10.975zm17.186-10.087h15.829v9.744h-15.829v-9.744z"/></g><g fill="#14304A"><path d="M546.767 89.322c0 7.572 6.16 13.734 13.733 13.734 7.574 0 13.735-6.162 13.735-13.734 0-7.573-6.161-13.733-13.735-13.733-7.573 0-13.733 6.16-13.733 13.733z"/><rect x="543.238" y="43.46" width="4.84" height="5.92"/><path d="M451.94 96.129c-.018.217-.032.436-.032.655 0 4.637 3.805 8.407 8.479 8.407 4.676 0 8.479-3.771 8.479-8.407 0-.222-.018-.438-.034-.655l-.053-.472c-.56-4.104-4.104-7.278-8.396-7.278-4.288 0-7.834 3.176-8.394 7.278l-.049.472zm-40.241 1.247c0 4.315 3.534 7.817 7.894 7.817 4.363 0 7.896-3.502 7.896-7.817 0-.592-.072-1.165-.198-1.719h22.311c.57-5.411 5.188-9.646 10.783-9.646 3.755 0 7.068 1.906 9.017 4.798v-11.288h-21.854v10.996h-12.024l-4.026-7.487-1.861 1.222 3.372 6.268h-6.625l4.917-18.405h6.731v-1.912h-10.17v.762l-.054-.019-1.049 3.929h-4.406v7.86h2.308l-1.986 7.439c-.946-.396-1.983-.613-3.075-.613-4.365 0-7.899 3.5-7.901 7.815zm71.464-85.594v76.591l-12.771 4.261c.328.777.556 1.603.692 2.46l16.158-5.39h57.182l-.021-.382c0-8.877 7.223-16.1 16.098-16.1 8.876 0 16.1 7.223 16.1 16.1l-.021.382h1.506v-77.922h-94.923zm81.813 23.191h-70.057v-21.829h70.057v21.829zm-73.325 28.429v-26.12h3.704v2.833h-1.968v9.9h4.8v-9.9h-2.084v-2.833h7.025v1.606h-2.353v4.997h2.353v.573h-2.466v6.362h5.2v-6.362h-1.986v-.573h2.101v-4.997h-2.101v-1.606h5.704v2.598h-1.967v9.901h4.799v-9.901h-2.082v-2.598h7.024v1.373h-2.418v5.477h2.418v.628h-2.544v6.972h5.7v-6.972h-2.406v-.628h2.53v-5.477h-2.53v-1.373h27.174v.995h-2.15v4.65h2.15v.044h.637v-.044h2.052v-4.65h-2.052v-.995h5.966v2.037h-1.767v8.405h4.076v-8.405h-1.673v-2.037h5.577v1.665h-2.533v5.475h2.533v.628h-2.406v6.972h5.697v-6.972h-2.542v-.628h2.417v-5.475h-2.417v-1.665h7.024v2.891h-2.082v9.898h4.798v-9.898h-1.966v-2.891h3.383v26.122h-78.351v-.002z"/><rect x="497.284" y="15.508" width="65.327" height="17.1"/></g><g fill="#14304A"><polygon points="320.666,49.432 319.909,49.432 319.909,52.087 317.928,52.087 317.928,61.188 322.763,61.188 322.763,52.087 320.666,52.087"/><polygon points="372.522,52.173 370.54,52.173 370.54,49.518 369.783,49.518 369.783,52.173 367.685,52.173 367.685,61.273 372.522,61.273"/><rect x="338.593" y="55.109" width="4.877" height="5.441"/><path d="M375.667 45.883l-.094-.121c-.019-.031-1.864-3.065-4.707-3.382-1.761-.198-3.575.679-5.403 2.601-1.974 2.074-3.558 3.004-4.978 3.013-1.554-.02-2.608-1.184-3.628-2.31-2.017-2.225-4.104-4.525-10.578.263-3.596 2.658-6.13.549-8.167-1.147-2.199-1.831-3.938-3.279-6.905-.6-5.035 4.537-7.824 2.521-10.062.899-2.097-1.516-3.75-2.712-7.193.813-2.353 2.407-5.742 2.284-8.413 1.636v56.849h79.261v-56.311c-.916.273-1.924.462-2.982.462-2.005.002-4.168-.663-6.151-2.665zm.439 38.743h-1.818v-5.177h-6.502v5.177h-1.382v-7.798h-6.649v7.798h-2.421v-6.558h-6.501v6.558h-19.907v-5.177h-6.503v5.177h-.749v-7.798h-6.649v7.798h-2.419v-35.195h13.142v1.531h-2.438v5.032h2.437v.576h-2.562v6.41h5.742v-6.41h-2.427v-.576h2.551v-5.032h-2.551v-1.531h5.618v1.873h-1.685v7.728h4.108v-7.728h-1.781v-1.873h6.011v.916h-2.069v4.274h2.069v.04h.642v-.04h2.165v-4.274h-2.165v-.916h6.204v1.402h-2.552v5.032h2.552v.578h-2.425v6.41h5.743v-6.41h-2.563v-.579h2.436v-5.032h-2.436v-1.402h7.078v2.53h-2.097v9.099h4.836v-9.099h-1.982v-2.53h5.745v1.616h-2.117v4.595h2.117v.525h-2.001v5.848h5.241v-5.848h-2.486v-.525h2.37v-4.595h-2.37v-1.616h13.401l-.001 35.196zm3.049-62.057s-3.399 2.48-6.329 2.178l2.012-5.391 8.453 2.946.208-.595-8.439-2.941 1.26-3.377 6.663 2.578.171-.54-6.637-2.568 1.256-3.361 7.871 4.964.348-.553-7.986-5.038 1.292-3.464-1.274-.476-1.193 3.198-9.046-5.707-.35.553 9.162 5.78-1.348 3.613-8.109-3.137-.172.54 8.082 3.127-1.273 3.42-9.865-3.438-.209.595 9.853 3.435-2.042 5.476c-.274-.132-.542-.298-.79-.51-4.062-3.485-5.323-3.405-9.256 0-5.501 4.76-6.647-5.588-14.059-.166-.199.146-.394.278-.581.401.166.338.294.688.366 1.056l.2.94c.493 2.213 1.108 4.969-.659 7.667-2.003 3.066-6.664 5.277-14.242 6.758-3.075.601-5.797.906-8.086.906-9.622 0-10.552-5.289-11.167-8.79l-.149-.817c-.721-3.694 3.476-7.681 10.073-10.087-1.402-.681-2.944-.746-5.001 1.127-4.792 4.361-8.651-.3-8.651-.3l-7.96 22.87.1.051.327-.607c.073.039 7.394 3.912 11.07.146 4.205-4.303 6.664-2.523 8.835-.954 2.256 1.631 4.205 3.039 8.479-.814 3.782-3.409 6.429-1.206 8.559.566 2.045 1.702 3.812 3.173 6.613 1.102 7.391-5.466 10.208-2.363 12.263-.095.913 1.01 1.706 1.883 2.708 1.896h.021c1.029 0 2.347-.857 4.027-2.621 2.12-2.225 4.287-3.23 6.463-2.984 3.237.366 5.273 3.399 5.602 3.919 5.076 5.049 11.433.113 11.702-.101l.127.161-9.293-22.537zm-55.668 7.555c2.03 0 4.392-.25 6.819-.725 7.152-1.398 10.728-3.841 10.558-4.704-.087-.446-1.419-1.108-4.733-1.108-2.031 0-4.389.251-6.818.726-7.153 1.399-10.728 3.842-10.559 4.705.086.444 1.419 1.106 4.733 1.106zm-9.16 1.464l.151.841c.607 3.451 1.362 7.746 9.927 7.746 2.208 0 4.85-.297 7.846-.882 7.125-1.393 11.643-3.484 13.427-6.213 1.477-2.253.949-4.618.484-6.702l-.209-.972c-.531-2.719-4.875-4.548-10.807-4.548-2.059 0-4.203.216-6.373.64-8.57 1.676-15.187 6.296-14.446 10.09zm14.742-8.514c2.509-.49 4.949-.749 7.062-.749 2.533 0 5.626.369 5.971 2.128.485 2.481-5.443 4.99-11.555 6.184-2.507.49-4.95.749-7.061.749-2.535 0-5.628-.37-5.974-2.127-.482-2.482 5.449-4.99 11.557-6.185z"/></g></svg>