<svg xmlns="http://www.w3.org/2000/svg" height="108" width="780"><rect y="102.19" x="-2.333" height="13.812" width="850.83" fill="#0071BC"/><g fill="#0071BC"><rect y="15.519" x="36.557" height="19.214" width="63.958"/><rect y="93.282" x="34.751" height="11.963" width="19.306"/><rect y="93.98" x="84.731" height="11.963" width="19.307"/><path d="m113.26 29.074v-.113h-.089l-7.761-10.077h-2.796v17.948h-68.152v-17.948h-3.136l-17.065 24.56h11.067v62.303h8.029v-13.868h22.105v13.864h27.875v-13.168h22.104v13.165h7.821v-62.307h11.067l-11.07-14.369zm-9.64 54.739h-2.02v-5.746h-7.216v5.746h-.833v-8.653h-7.376v8.653h-.588v-7.275h-7.215v7.275h-24.882v-5.746h-7.216v5.746h-.832v-8.653h-7.376v8.653h-2.684v-39.047h5.888v2.947h-2.199v10.097h5.365v-10.097h-2.326v-2.947h7.852v1.698h-2.703v5.583h2.703v.641h-2.843v7.109h6.371v-7.109h-2.69v-.641h2.831v-5.583h-2.831v-1.698h6.233v2.077h-1.869v8.571h4.557v-8.571h-1.976v-2.077h6.668v1.015h-2.294v4.741h2.294v.046h.711v-.046h2.404v-4.741h-2.404v-1.015h6.883v1.555h-2.832v5.583h2.832v.641h-2.688v7.11h6.371v-7.11h-2.844v-.641h2.702v-5.583h-2.702v-1.555h7.852v2.804h-2.326v10.097h5.364v-10.097h-2.2v-2.804h6.375v1.793h-2.348v5.095h2.348v.585h-2.218v6.488h5.813v-6.487h-2.757v-.585h2.629v-5.095h-2.629v-1.793h14.868v39.048z"/></g><g fill="#0071BC"><polygon points="686.96 49.099 684.98 49.099 684.98 46.519 684.22 46.519 684.22 49.099 682.11 49.099 682.11 57.94 686.96 57.94"/><rect y="51.953" x="652.94" height="5.287" width="4.887"/><path d="m703.06 57.096v2.229h3.356v44.382h1.862v-44.384h9.336v10.984c-.745.785-1.826 2.401-1.826 5.199 0 2.975 1.225 6.444 1.961 8.263l-1.609 3.565h4.517l-1.789-3.628c.741-1.838 1.934-5.261 1.934-8.198 0-4.251-2.506-5.792-2.506-5.792v-10.393h7.779v13.487c-.86.908-2.114 2.78-2.114 6.019 0 3.442 1.415 7.457 2.27 9.565l-1.866 4.126h5.229l-2.07-4.198c.855-2.128 2.241-6.091 2.241-9.491 0-4.921-2.899-6.706-2.899-6.706v-12.801h7.002v10.508c-.743.785-1.826 2.403-1.826 5.2 0 2.974 1.225 6.441 1.962 8.262l-1.61 3.564h4.514l-1.788-3.626c.74-1.838 1.936-5.261 1.936-8.198 0-4.252-2.505-5.793-2.505-5.793v-9.916h7.059v10.277c-.668.704-1.639 2.158-1.639 4.671 0 2.672 1.1 5.791 1.761 7.427l-1.447 3.205h4.061l-1.606-3.262c.666-1.651 1.739-4.729 1.739-7.368 0-3.822-2.253-5.206-2.253-5.206v-9.742h7.485v14.71c-.896.945-2.202 2.896-2.202 6.268 0 3.587 1.478 7.77 2.367 9.964l-1.945 4.301h5.448l-2.159-4.376c.894-2.214 2.336-6.344 2.336-9.889 0-5.127-3.023-6.986-3.023-6.986v-13.996h11.268v44.381h1.863v-44.384h3.622v-2.23h-64.22zm15.27 14.331c.435 0 .789.351.789.786 0 .433-.353.786-.789.786-.434 0-.784-.352-.784-.786-.01-.434.34-.786.78-.786zm8.57 2.68c.503 0 .911.407.911.91 0 .504-.408.91-.911.91s-.911-.406-.911-.91c0-.502.41-.91.91-.91zm7.68-3.155c.433 0 .787.352.787.785 0 .435-.353.787-.787.787s-.786-.352-.786-.787c0-.433.35-.785.79-.785zm7.67-.348c.389 0 .706.316.706.708 0 .387-.315.707-.706.707-.389 0-.707-.316-.707-.707s.32-.708.71-.708zm8.31 4.778c.523 0 .95.425.95.948 0 .522-.425.948-.95.948s-.948-.426-.948-.948c.01-.525.43-.948.95-.948zm705.56 40.166l2.488 2.402 2.076-2.402h.87l3.217 2.741 1.967-2.741h.568l-.4-.235.14-.192h-.466l-52.52-30.781h6.071v-4.175h-22.174v4.175h5.553l-51.344 31.208h1.142l2.734 2.642 2.284-2.642h.384l3.497 2.979 2.139-2.979h.123l3.143 3.035 2.62-3.035h.674l1.64 1.396 1.002-1.396h1.694l-2.449 3.414-2.438-2.077v62.205h79.463v-63.43l2.894 2.465 1.849-2.577h1.58zm-15 40.465h-1.825v-5.031h-6.521v5.031h-.749v-7.577h-6.667v7.577h-.53v-6.37h-6.521v6.37h-22.486v-5.031h-6.52v5.031h-.752v-7.577h-6.667v7.577h-2.423v-34.196h5.321v2.581h-1.986v8.842h4.848v-8.842h-2.103v-2.581h7.097v1.486h-2.442v4.891h2.442v.561h-2.57v6.225h5.758v-6.225h-2.43v-.561h2.557v-4.891h-2.557v-1.486h5.634v1.818h-1.688v7.507h4.116v-7.507h-1.786v-1.818h6.025v.889h-2.075v4.151h2.075v.041h.643v-.041h2.171v-4.151h-2.173v-.889h6.219v1.361h-2.559v4.889h2.559v.562h-2.428v6.227h5.757v-6.227h-2.57v-.562h2.443v-4.889h-2.443v-1.361h7.098v2.455h-2.103v8.841h4.849v-8.841h-1.991v-2.455h5.763v1.57h-2.122v4.461h2.122v.512h-2.003v5.683h5.254v-5.683h-2.491v-.512h2.373v-4.461h-2.373v-1.57h13.437l-.02 34.196zm5.78-37.396l-2.981-2.881-2.316 3.226-3.767-3.21-2.474 2.864-2.73-2.637-2.142 2.982-3.768-3.21-2.474 2.864-2.98-2.881-2.317 3.226-3.767-3.209-2.473 2.864-2.983-2.88-2.315 3.226-3.768-3.21-2.474 2.864-2.479-2.393-1.964 2.738-3.767-3.209-2.475 2.864-2.981-2.88-2.316 3.225-3.768-3.21-2.473 2.864-3.177-3.069h1.98l1.106 1.068.922-1.068h3.524l1.639 1.397 1-1.397h3.349l1.103 1.068.923-1.068h3.525l1.639 1.397 1.003-1.397h2.489l1.106 1.068.921-1.068h3.525l1.639 1.396 1.003-1.396h3.346l1.105 1.068.921-1.068h3.524l1.64 1.397 1.001-1.397h3.346l1.105 1.068.922-1.068h3.525l1.637 1.397 1.003-1.397h2.921l1.104 1.068.922-1.068h3.525l1.638 1.397 1.001-1.397h3.349l1.104 1.068.922-1.068h1.851l-2.66 3.072z"/></g><g fill="#0071BC"><path d="m241.1 91.402c0 6.22 5.061 11.282 11.281 11.282s11.281-5.062 11.281-11.282c0-6.221-5.061-11.28-11.281-11.28s-11.28 5.064-11.28 11.284zm167.36 92.425c0 6.221 5.061 11.282 11.28 11.282 6.221 0 11.28-5.062 11.28-11.282s-5.06-11.28-11.28-11.28c-6.22-.003-11.28 5.057-11.28 11.277z"/><polygon points="208.62 47.631 275.31 47.631 263.95 35.622 197.26 35.622"/><path d="m150.02 66.139v25.578h15.435c.372-6.961 6.136-12.515 13.187-12.515 7.052 0 12.814 5.554 13.187 12.515h47.347l-.017-.312c0-7.291 5.932-13.223 13.223-13.223s13.224 5.932 13.224 13.223l-.017.312h1.236v-42.791h-6.634v19.988h-2.042v-8.448h-6.71v8.448h-2.051v-5.28h-6.564v5.28h-19.4v-6.947h-6.563v6.947h-1.829v-8.448h-6.712v8.448h-1.403v-5.28h-6.564v5.28h-3.181l9.03-21.954-1.797-1.898-8.76 21.294v-30.554l-1.395-1.474h70.257l2.318 2.45v-9.06h-77.964v22.07h-27.866v16.351h-11.01zm17.19-10.087h15.829v9.744h-15.829v-9.744z"/></g><g fill="#0071BC"><path d="m546.77 89.322c0 7.573 6.16 13.735 13.733 13.735 7.574 0 13.735-6.162 13.735-13.735s-6.161-13.733-13.735-13.733c-7.57-.003-13.73 6.157-13.73 13.73z"/><rect y="43.46" x="543.24" height="5.92" width="4.84"/><path d="m451.94 96.129c-.017.217-.032.435-.032.655 0 4.637 3.805 8.408 8.479 8.408 4.676 0 8.479-3.771 8.479-8.408 0-.221-.017-.438-.034-.655l-.053-.472c-.559-4.104-4.104-7.278-8.395-7.278-4.288 0-7.834 3.175-8.394 7.278-.04.159-.05.318-.07.474zm411.7 97.376c0 4.316 3.534 7.817 7.894 7.817 4.363 0 7.896-3.501 7.896-7.817 0-.592-.072-1.165-.198-1.719h22.311c.57-5.411 5.188-9.646 10.783-9.646 3.755 0 7.068 1.906 9.016 4.797v-11.283h-21.854v10.996h-12.025l-4.026-7.488-1.861 1.222 3.372 6.267h-6.625l4.917-18.405h6.731v-1.912h-10.17v.762l-.053-.019-1.049 3.929h-4.406v7.86h2.307l-1.986 7.44c-.946-.396-1.984-.614-3.075-.614-4.36.001-7.9 3.501-7.9 7.816zm483.16 11.782v76.591l-12.771 4.261c.328.777.555 1.603.692 2.46l16.158-5.39h57.182l-.021-.382c0-8.877 7.223-16.099 16.098-16.099 8.876 0 16.1 7.222 16.1 16.099l-.021.382h1.506v-77.922h-94.93zm81.82 23.191h-70.057v-21.829h70.057v21.829zm-73.33 28.43v-26.121h3.704v2.833h-1.967v9.9h4.8v-9.9h-2.084v-2.833h7.025v1.606h-2.353v4.997h2.353v.573h-2.466v6.362h5.2v-6.362h-1.986v-.573h2.101v-4.997h-2.101v-1.606h5.704v2.598h-1.967v9.901h4.799v-9.901h-2.082v-2.598h7.025v1.373h-2.418v5.477h2.418v.628h-2.544v6.972h5.7v-6.972h-2.407v-.628h2.531v-5.477h-2.531v-1.373h27.174v.995h-2.15v4.65h2.15v.044h.637v-.044h2.052v-4.65h-2.052v-.995h5.966v2.037h-1.767v8.405h4.076v-8.405h-1.672v-2.037h5.577v1.665h-2.533v5.475h2.533v.628h-2.407v6.972h5.698v-6.972h-2.542v-.628h2.417v-5.475h-2.417v-1.665h7.024v2.891h-2.082v9.898h4.798v-9.898h-1.966v-2.891h3.383v26.122h-78.34100000000001v-.001z"/><rect y="15.508" x="497.28" height="17.1" width="65.327"/></g><g fill="#0071BC"><polygon points="320.67 49.432 319.91 49.432 319.91 52.087 317.93 52.087 317.93 61.188 322.76 61.188 322.76 52.087 320.67 52.087"/><polygon points="372.52 52.173 370.54 52.173 370.54 49.518 369.78 49.518 369.78 52.173 367.68 52.173 367.68 61.273 372.52 61.273"/><rect y="55.11" x="338.59" height="5.441" width="4.877"/><path d="m375.67 45.883l-.094-.121c-.018-.031-1.864-3.065-4.707-3.382-1.761-.198-3.575.679-5.403 2.601-1.974 2.074-3.558 3.004-4.978 3.013-1.553-.02-2.608-1.184-3.628-2.31-2.016-2.225-4.104-4.525-10.578.263-3.595 2.658-6.13.549-8.167-1.147-2.199-1.831-3.937-3.279-6.905-.6-5.035 4.537-7.824 2.521-10.063.899-2.096-1.516-3.75-2.712-7.193.813-2.352 2.407-5.742 2.284-8.413 1.636v56.848h79.262v-56.31c-.916.273-1.924.462-2.983.462-2.01-.002-4.17-.667-6.15-2.669zm.44 38.743h-1.818v-5.177h-6.502v5.177h-1.382v-7.798h-6.649v7.798h-2.421v-6.557h-6.501v6.557h-19.907v-5.177h-6.503v5.177h-.749v-7.798h-6.65v7.798h-2.419v-35.195h13.142v1.531h-2.437v5.032h2.436v.577h-2.562v6.41h5.742v-6.41h-2.43v-.577h2.551v-5.032h-2.55v-1.531h5.618v1.873h-1.684v7.728h4.108v-7.728h-1.781v-1.873h6.01v.916h-2.069v4.274h2.069v.04h.642v-.04h2.165v-4.274h-2.165v-.916h6.204v1.402h-2.552v5.032h2.552v.579h-2.425v6.409h5.744v-6.409h-2.564v-.58h2.436v-5.032h-2.436v-1.402h7.078v2.53h-2.097v9.099h4.836v-9.099h-1.982v-2.53h5.745v1.616h-2.117v4.594h2.117v.526h-2.001v5.848h5.241v-5.848h-2.486v-.526h2.37v-4.594h-2.37v-1.616h13.401v35.196zm379.16 22.569s-3.399 2.48-6.329 2.178l2.012-5.391 8.453 2.946.208-.595-8.439-2.941 1.259-3.377 6.663 2.578.171-.54-6.636-2.568 1.255-3.361 7.872 4.964.347-.553-7.986-5.038 1.292-3.464-1.275-.476-1.193 3.198-9.046-5.707-.349.553 9.162 5.78-1.348 3.613-8.109-3.137-.172.54 8.082 3.127-1.274 3.42-9.865-3.438-.209.595 9.853 3.435-2.042 5.476c-.275-.132-.542-.298-.79-.51-4.063-3.485-5.324-3.405-9.256 0-5.501 4.76-6.648-5.588-14.059-.166-.199.146-.393.278-.581.401.166.338.294.688.366 1.056.059.3.128.614.201.94.493 2.213 1.108 4.969-.66 7.667-2.003 3.066-6.664 5.277-14.242 6.758-3.075.601-5.797.906-8.086.906-9.622 0-10.551-5.289-11.167-8.79l-.149-.817c-.721-3.694 3.475-7.681 10.073-10.087-1.402-.681-2.944-.746-5.001 1.127-4.792 4.361-8.651-.3-8.651-.3l-7.96 22.87.1.051.327-.607c.073.039 7.394 3.912 11.07.146 4.205-4.303 6.664-2.523 8.835-.954 2.256 1.631 4.205 3.039 8.479-.814 3.783-3.409 6.429-1.206 8.559.566 2.045 1.702 3.812 3.173 6.613 1.102 7.391-5.466 10.208-2.363 12.263-.095.913 1.01 1.706 1.883 2.708 1.896h.021c1.03 0 2.347-.857 4.028-2.621 2.12-2.225 4.287-3.23 6.463-2.984 3.237.366 5.273 3.399 5.601 3.919 5.076 5.049 11.433.113 11.702-.101l.127.161-9.24-22.537zm323.49 30.124c2.031 0 4.392-.25 6.82-.725 7.152-1.398 10.727-3.841 10.557-4.704-.087-.446-1.419-1.108-4.733-1.108-2.031 0-4.389.251-6.819.726-7.153 1.399-10.727 3.842-10.558 4.705.08.444 1.41 1.106 4.73 1.106zm314.33 31.588l.152.841c.607 3.451 1.362 7.746 9.926 7.746 2.208 0 4.85-.297 7.846-.882 7.125-1.393 11.643-3.484 13.427-6.213 1.476-2.253.949-4.618.484-6.702l-.209-.972c-.531-2.719-4.875-4.548-10.807-4.548-2.058 0-4.203.216-6.373.64-8.58 1.676-15.19 6.296-14.45 10.09zm14.74-8.514c2.509-.49 4.95-.749 7.062-.749 2.533 0 5.626.369 5.971 2.128.485 2.481-5.444 4.99-11.555 6.184-2.507.49-4.95.749-7.061.749-2.535 0-5.628-.37-5.973-2.127-.48-2.482 5.45-4.99 11.56-6.185z"/></g></svg>