<svg xmlns="http://www.w3.org/2000/svg" width="145" height="69"><g fill="#451111"><path d="M2.188 55.939h8.62v5.9c1.438.377 3.404.684 5.825.684 3.856 0 6.127-1.213 6.127-4.162 0-3.102-3.177-3.858-8.018-4.842-6.276-1.208-12.933-3.327-12.933-11.343 0-7.64 5.901-12.555 16.717-12.555 5.975 0 11.496 1.662 14.219 2.949v9.53h-8.396v-5.521c-1.132-.528-3.327-.831-5.143-.831-3.856 0-5.973 1.511-5.973 4.009 0 3.176 3.401 3.628 7.94 4.463 6.125 1.208 13.085 3.401 13.085 11.57 0 7.867-6.054 12.858-17.019 12.858-6.278 0-11.648-1.589-15.051-3.026v-9.683zm48.102-19.285c.607.982.909 2.193.909 3.477 0 3.557-2.799 5.826-6.43 5.826-4.311 0-6.808-2.119-6.808-6.355 0-6.957 7.337-9.981 18.152-9.981 12.405 0 17.322 3.479 17.322 12.782v16.336c0 1.438.452 2.193 1.283 2.193h2.572v6.656h-13.46c-1.437-1.815-2.12-3.326-2.801-5.973-1.739 3.928-7.182 7.032-12.854 7.032-7.187 0-11.347-4.161-11.347-9.833 0-9.982 11.119-12.101 24.126-14.297v-2.04c0-4.462-2.04-6.277-6.806-6.277-1.511 0-2.797.152-3.858.454m10.664 15.733v-2.801c-7.183.984-12.253 2.648-12.253 7.262 0 2.723 1.817 4.463 4.537 4.463 4.842 0 7.642-3.555 7.716-8.924"/><path d="M95.518 37.863c1.589-5.822 5.146-8.243 9.91-8.243 5.749 0 9.228 3.856 9.228 10.135 0 5.443-3.026 8.771-7.867 8.771-3.1 0-5.746-2.344-5.746-5.369 0-2.193 1.284-4.236 3.329-5.143-.531-.454-1.289-.681-2.195-.681-4.463 0-6.505 3.933-6.581 11.192v10.211c0 1.893.531 2.193 1.44 2.193h2.872v6.656h-20.803v-6.656h2.65c.906 0 1.36-.301 1.36-2.193v-18.906c0-2.04-.225-2.495-1.36-2.495h-2.952v-6.655h7.643c3.855 0 7.258-.379 9.071-.908v8.091zm20.725 23.069h2.723c.905 0 1.361-.455 1.361-2.193v-18.38c0-2.344-.379-3.024-1.665-3.024h-2.419v-6.655h7.487c3.859 0 7.261-.379 9.076-.908v28.966c0 1.738.454 2.193 1.361 2.193h2.571v6.656h-20.496v-6.655z"/><rect x="128.184" y="7.396" transform="matrix(-.296 -.955 .955 -.296 162.966 142.183)" width="11.408" height="7.262"/><path d="M143.005 14.172l-3.375-10.897c-.677-2.185-3.005-3.412-5.189-2.736l-6.935 2.149c-1.29.399-2.23 1.379-2.659 2.558l-.009-.007-.065.189-.016.036-6.051 17.321 4.307-2.16-2.782 7.306 10.755-6.36-.873 5.941 11.527-8.88-.005-.003c1.288-1.035 1.89-2.784 1.37-4.457m-3.348 3.21l-6.936 2.148c-.201.063-.407.092-.608.092-.886 0-1.711-.572-1.986-1.46l-3.377-10.894c-.337-1.092.279-2.261 1.367-2.597l6.937-2.149c.202-.063.406-.094.608-.094.885 0 1.71.574 1.985 1.461l3.377 10.897c.337 1.089-.278 2.257-1.367 2.596"/></g></svg>