<svg xmlns="http://www.w3.org/2000/svg" width="584" height="95"><g fill="#0071BC"><rect x="26.543" y="35.567" width="111.034" height="58.903"/><polygon points="150.528,49.034 13.591,49.034 28.987,9.48 135.132,9.48"/></g><rect x="178.636" y="56.284" fill="#0071BC" width="111.94" height="36.337"/><rect x="178.636" y="15.861" fill="#0071BC" width="111.94" height="18.168"/><rect x="189.133" y="24.94" stroke="#0071BC" stroke-width="9" stroke-miterlimit="10" width="90.946" height="39.31" fill="none"/><polygon fill="#0071BC" points="428.198,49.441 434.575,49.441 413.297,24.945 325.434,24.945 346.712,49.441 424.118,49.441 413.297,61.186 413.297,51.441 346.712,51.441 345.8,51.441 345.203,50.754 325.434,27.995 325.434,84.188 413.297,84.188 413.297,65.257 413.475,65.421"/><g fill="#0071BC"><path d="M461.342 36.923c2.604 0 4.719 2.117 4.719 4.719 0 .949.771 1.721 1.723 1.721.945 0 1.719-.772 1.719-1.721 0-2.602 2.118-4.719 4.721-4.719 2.604 0 4.722 2.117 4.722 4.719 0 .949.771 1.721 1.72 1.721s1.72-.772 1.72-1.721c0-2.602 2.117-4.719 4.72-4.719 2.604 0 4.723 2.117 4.723 4.719 0 .949.771 1.721 1.719 1.721.949 0 1.721-.772 1.721-1.721 0-2.602 2.117-4.719 4.722-4.719 2.603 0 4.72 2.117 4.72 4.719 0 .949.771 1.721 1.72 1.721s1.72-.772 1.72-1.721c0-2.602 2.118-4.719 4.723-4.719 2.602 0 4.719 2.117 4.719 4.719 0 .949.771 1.721 1.721 1.721.948 0 1.722-.772 1.722-1.721 0-2.602 2.116-4.719 4.72-4.719s4.72 2.117 4.72 4.719c0 .949.771 1.721 1.72 1.721s1.722-.772 1.722-1.721c0-2.602 2.116-4.719 4.72-4.719s4.721 2.117 4.721 4.719c0 .949.771 1.721 1.72 1.721s1.722-.772 1.722-1.721c0-2.602 2.117-4.719 4.72-4.719.658 0 1.285.137 1.854.382l-5.88-18.684c0-1.511-1.226-2.736-2.735-2.736-1.512 0-2.744 1.225-2.744 2.736 0 1.512-1.226 2.738-2.737 2.738-1.511 0-2.734-1.226-2.734-2.738 0-1.511-1.229-2.736-2.738-2.736s-2.736 1.225-2.736 2.736c0 1.512-1.225 2.738-2.734 2.738-1.513 0-2.737-1.226-2.737-2.738 0-1.511-1.225-2.736-2.736-2.736-1.511 0-2.735 1.225-2.735 2.736 0 1.512-1.227 2.738-2.736 2.738-1.514 0-2.738-1.226-2.738-2.738 0-1.511-1.225-2.736-2.735-2.736-1.512 0-2.735 1.225-2.735 2.736 0 1.512-1.227 2.738-2.737 2.738s-2.736-1.226-2.736-2.738c0-1.511-1.226-2.736-2.735-2.736-1.512 0-2.736 1.225-2.736 2.736 0 1.512-1.226 2.738-2.737 2.738s-2.735-1.226-2.735-2.738c0-1.511-1.227-2.736-2.737-2.736s-2.735 1.225-2.735 2.736c0 1.512-1.227 2.738-2.736 2.738-1.512 0-2.736-1.226-2.736-2.738 0-1.511-1.226-2.736-2.735-2.736-1.513 0-2.737 1.225-2.737 2.736 0 1.512-1.226 2.738-2.736 2.738-1.51 0-2.736-1.226-2.736-2.738 0-1.511-1.227-2.736-2.735-2.736-1.514 0-2.737 1.225-2.737 2.736l-5.88 18.685c.527-.245 1.154-.383 1.813-.383zM551.498 39.923c-.948 0-1.72.771-1.72 1.719 0 2.603-2.118 4.721-4.723 4.721-2.602 0-4.719-2.118-4.719-4.721 0-.948-.771-1.719-1.721-1.719-.948 0-1.72.771-1.72 1.719 0 2.603-2.118 4.721-4.723 4.721-2.602 0-4.719-2.118-4.719-4.721 0-.948-.771-1.719-1.72-1.719s-1.72.771-1.72 1.719c0 2.603-2.117 4.721-4.722 4.721-2.603 0-4.721-2.118-4.721-4.721 0-.948-.771-1.719-1.719-1.719-.949 0-1.723.771-1.723 1.719 0 2.603-2.116 4.721-4.72 4.721-2.603 0-4.72-2.118-4.72-4.721 0-.948-.771-1.719-1.72-1.719s-1.722.771-1.722 1.719c0 2.603-2.118 4.721-4.721 4.721s-4.719-2.118-4.719-4.721c0-.948-.771-1.719-1.723-1.719-.946 0-1.72.771-1.72 1.719 0 2.603-2.117 4.721-4.72 4.721-2.604 0-4.721-2.118-4.721-4.721 0-.948-.771-1.719-1.721-1.719s-1.721.771-1.721 1.719c0 2.603-2.117 4.721-4.719 4.721-2.604 0-4.723-2.118-4.723-4.721 0-.948-.771-1.719-1.719-1.719-.949 0-1.721.771-1.721 1.719h-1.5v46.358h96.596v-46.358h-1.5c.023-.948-.748-1.719-1.696-1.719z"/></g><rect x="-2.333" y="83.188" fill="#0071BC" width="592" height="13.812"/></svg>