<svg xmlns="http://www.w3.org/2000/svg" width="993" height="180"><g opacity=".25" fill="#1C75BC"><rect x="191.385" y="17.217" width="82.209" height="162.737"/><rect x="-18.615" y="135.71" width="82.209" height="44.244"/><rect x="951.957" y="135.71" width="82.209" height="44.244"/><rect x="57.953" y="142.69" width="82.209" height="37.265"/><rect x="257.953" y="107.46" width="59.047" height="72.494"/><rect x="350.236" y="135.71" width="59.047" height="44.244"/><rect x="467.008" y="151.955" width="59.047" height="28"/><rect x="575.505" y="122.571" width="59.047" height="57.384"/><rect x="672.505" y="151.263" width="59.047" height="28.692"/><rect x="705.028" y="135.71" width="59.047" height="44.244"/><rect x="771.178" y="143.708" width="59.047" height="36.247"/><rect x="877.329" y="142.69" width="59.047" height="37.265"/><rect x="150.281" y="151.955" width="82.209" height="28"/><rect x="18.021" y="44.363" width="68.496" height="135.591"/><rect x="288.853" width="90.907" height="179.955"/><rect x="612.028" y="16.319" width="82.663" height="163.636"/><polygon points="597.259,47.253 531.966,47.253 531.966,34.966 515.779,34.966 515.779,47.253 503.248,47.253 503.248,59.261 504.95,59.261 504.95,179.955 595.858,179.955 595.858,59.261 597.259,59.261"/><polygon points="489.594,39.585 479.22,39.585 479.22,31.072 451.562,31.072 451.562,39.585 427.709,39.585 427.709,22.903 411.523,22.903 411.523,39.585 395.584,39.585 395.584,51.594 397.287,51.594 397.287,179.955 488.194,179.955 488.194,51.594 489.594,51.594"/><polygon points="802.701,47.733 812.474,47.733 812.474,39.714 838.525,39.714 838.525,47.733 860.994,47.733 860.994,32.019 876.24,32.019 876.24,47.733 891.255,47.733 891.255,59.044 889.65,59.044 889.65,179.955 804.02,179.955 804.02,59.044 802.701,59.044"/><path d="M901.062 122.554l-.021.006.021-.006zm82.627.02l-41.222-31.107s-40.304 30.361-41.405 31.089c.298-.166 4.764-.254 11.483-.293v57.692h60.347v-57.472c6.554.052 10.797.091 10.797.091zm-276.85-13.928l-.02.011.02-.011zm83.672.029l-41.741-47.394s-40.811 46.257-41.931 47.364c.303-.25 4.824-.386 11.631-.444v71.754h61.108v-71.417c6.635.078 10.933.137 10.933.137z"/><polygon points="180.666,120.46 102.239,105.427 99.057,122.026 108.283,123.795 108.283,179.955 171.441,179.955 171.441,135.901 177.484,137.062"/></g></svg>